<svg xmlns="http://www.w3.org/2000/svg" viewBox="70 200 1014 1140">
<g fill="#4a4a52" fill-rule="evenodd">
<path d="M 845 1170 L 845 1187 L 848 1187 L 848 1179 L 849 1178 L 850 1179 L 850 1182 L 851 1183 L 851 1185 L 852 1186 L 852 1187 L 855 1187 L 856 1186 L 856 1184 L 857 1183 L 857 1181 L 858 1180 L 858 1178 L 859 1177 L 860 1178 L 860 1187 L 861 1188 L 862 1188 L 863 1187 L 863 1170 L 858 1170 L 858 1171 L 857 1172 L 857 1175 L 856 1176 L 856 1177 L 855 1178 L 855 1181 L 854 1182 L 853 1181 L 853 1179 L 852 1178 L 852 1176 L 851 1175 L 851 1174 L 850 1173 L 850 1171 L 849 1170 Z  M 664 1046 L 664 1048 L 663 1049 L 663 1052 L 662 1053 L 662 1055 L 661 1056 L 661 1058 L 660 1059 L 660 1061 L 659 1062 L 659 1065 L 658 1066 L 658 1068 L 657 1069 L 657 1071 L 656 1072 L 656 1075 L 655 1076 L 655 1078 L 654 1079 L 654 1082 L 675 1082 L 675 1081 L 674 1080 L 674 1078 L 673 1077 L 673 1074 L 672 1073 L 672 1071 L 671 1070 L 671 1068 L 670 1067 L 670 1064 L 669 1063 L 669 1061 L 668 1060 L 668 1057 L 667 1056 L 667 1054 L 666 1053 L 666 1051 L 665 1050 L 665 1047 Z  M 416 743 L 415 744 L 407 744 L 406 745 L 401 745 L 400 746 L 396 746 L 395 747 L 392 747 L 391 748 L 388 748 L 387 749 L 384 749 L 383 750 L 381 750 L 380 751 L 378 751 L 377 752 L 376 752 L 375 753 L 373 753 L 372 754 L 371 754 L 370 755 L 369 755 L 368 756 L 366 756 L 365 757 L 364 757 L 363 758 L 362 758 L 360 760 L 359 760 L 358 761 L 357 761 L 356 762 L 355 762 L 354 763 L 353 763 L 352 764 L 351 764 L 349 766 L 348 766 L 347 767 L 346 767 L 343 770 L 342 770 L 340 772 L 339 772 L 335 776 L 334 776 L 329 781 L 328 781 L 318 791 L 318 792 L 312 798 L 312 799 L 308 803 L 308 804 L 305 807 L 305 808 L 303 810 L 303 811 L 302 812 L 302 813 L 300 815 L 300 816 L 298 818 L 298 819 L 297 820 L 297 821 L 296 822 L 296 823 L 295 824 L 295 825 L 294 826 L 294 827 L 293 828 L 293 829 L 292 830 L 292 831 L 291 832 L 291 833 L 290 834 L 290 836 L 289 837 L 289 838 L 288 839 L 288 841 L 287 842 L 287 844 L 286 845 L 286 847 L 285 848 L 285 849 L 284 850 L 284 853 L 283 854 L 283 857 L 282 858 L 282 861 L 281 862 L 281 866 L 280 867 L 280 872 L 279 873 L 279 880 L 278 881 L 278 1060 L 279 1061 L 279 1070 L 280 1071 L 280 1076 L 281 1077 L 281 1082 L 282 1083 L 282 1086 L 283 1087 L 283 1090 L 284 1091 L 284 1093 L 285 1094 L 285 1096 L 286 1097 L 286 1099 L 287 1100 L 287 1102 L 288 1103 L 288 1105 L 289 1106 L 289 1108 L 290 1109 L 290 1110 L 291 1111 L 291 1112 L 292 1113 L 292 1114 L 293 1115 L 293 1117 L 294 1118 L 294 1119 L 295 1120 L 295 1121 L 296 1122 L 296 1123 L 298 1125 L 298 1126 L 299 1127 L 299 1128 L 300 1129 L 300 1130 L 302 1132 L 302 1133 L 304 1135 L 304 1136 L 306 1138 L 306 1139 L 308 1141 L 308 1142 L 311 1145 L 311 1146 L 315 1150 L 315 1151 L 331 1167 L 332 1167 L 336 1171 L 337 1171 L 340 1174 L 341 1174 L 344 1177 L 345 1177 L 347 1179 L 348 1179 L 349 1180 L 350 1180 L 352 1182 L 353 1182 L 354 1183 L 355 1183 L 357 1185 L 358 1185 L 359 1186 L 360 1186 L 361 1187 L 362 1187 L 363 1188 L 364 1188 L 365 1189 L 366 1189 L 367 1190 L 368 1190 L 369 1191 L 370 1191 L 371 1192 L 373 1192 L 374 1193 L 375 1193 L 376 1194 L 378 1194 L 379 1195 L 381 1195 L 382 1196 L 384 1196 L 385 1197 L 387 1197 L 388 1198 L 390 1198 L 391 1199 L 394 1199 L 395 1200 L 399 1200 L 400 1201 L 405 1201 L 406 1202 L 413 1202 L 414 1203 L 728 1203 L 729 1202 L 736 1202 L 737 1201 L 742 1201 L 743 1200 L 746 1200 L 747 1199 L 750 1199 L 751 1198 L 754 1198 L 755 1197 L 757 1197 L 758 1196 L 760 1196 L 761 1195 L 763 1195 L 764 1194 L 765 1194 L 766 1193 L 768 1193 L 769 1192 L 770 1192 L 771 1191 L 772 1191 L 773 1190 L 774 1190 L 775 1189 L 777 1189 L 779 1187 L 780 1187 L 781 1186 L 782 1186 L 783 1185 L 784 1185 L 785 1184 L 786 1184 L 787 1183 L 788 1183 L 790 1181 L 791 1181 L 793 1179 L 794 1179 L 796 1177 L 797 1177 L 799 1175 L 800 1175 L 803 1172 L 804 1172 L 808 1168 L 809 1168 L 827 1150 L 827 1149 L 831 1145 L 831 1144 L 834 1141 L 834 1140 L 836 1138 L 836 1137 L 838 1135 L 838 1134 L 840 1132 L 840 1131 L 841 1130 L 841 1129 L 843 1127 L 843 1126 L 844 1125 L 844 1124 L 845 1123 L 845 1122 L 846 1121 L 846 1120 L 847 1119 L 847 1118 L 848 1117 L 848 1116 L 849 1115 L 849 1114 L 850 1113 L 850 1111 L 851 1110 L 851 1109 L 852 1108 L 852 1106 L 853 1105 L 853 1104 L 854 1103 L 854 1101 L 855 1100 L 855 1098 L 856 1097 L 856 1095 L 857 1094 L 857 1091 L 858 1090 L 858 1087 L 859 1086 L 859 1083 L 860 1082 L 860 1079 L 861 1078 L 861 1073 L 862 1072 L 862 1066 L 863 1065 L 863 1031 L 862 1030 L 862 1023 L 861 1022 L 861 1018 L 860 1017 L 860 1013 L 859 1012 L 859 1009 L 858 1008 L 858 1006 L 857 1005 L 857 1002 L 856 1001 L 856 999 L 855 998 L 855 996 L 854 995 L 854 993 L 853 992 L 853 991 L 852 990 L 852 988 L 851 987 L 851 986 L 850 985 L 850 984 L 849 983 L 849 982 L 848 981 L 848 980 L 847 979 L 847 977 L 846 976 L 846 975 L 844 973 L 844 972 L 843 971 L 843 970 L 841 968 L 841 967 L 840 966 L 840 965 L 838 963 L 838 962 L 836 960 L 836 959 L 834 957 L 834 956 L 831 953 L 831 952 L 827 948 L 827 947 L 809 929 L 808 929 L 804 925 L 803 925 L 801 923 L 800 923 L 797 920 L 796 920 L 794 918 L 793 918 L 791 916 L 790 916 L 789 915 L 788 915 L 787 914 L 786 914 L 785 913 L 784 913 L 782 911 L 781 911 L 780 910 L 779 910 L 778 909 L 777 909 L 776 908 L 775 908 L 774 907 L 772 907 L 771 906 L 770 906 L 769 905 L 767 905 L 766 904 L 765 904 L 764 903 L 762 903 L 761 902 L 759 902 L 758 901 L 755 901 L 754 900 L 752 900 L 751 899 L 748 899 L 747 898 L 743 898 L 742 897 L 735 897 L 734 896 L 731 896 L 730 895 L 731 894 L 739 894 L 740 895 L 863 895 L 864 894 L 863 893 L 863 879 L 862 878 L 862 871 L 861 870 L 861 866 L 860 865 L 860 861 L 859 860 L 859 857 L 858 856 L 858 854 L 857 853 L 857 850 L 856 849 L 856 847 L 855 846 L 855 844 L 854 843 L 854 842 L 853 841 L 853 839 L 852 838 L 852 837 L 851 836 L 851 835 L 850 834 L 850 832 L 849 831 L 849 830 L 848 829 L 848 828 L 847 827 L 847 826 L 846 825 L 846 824 L 845 823 L 845 822 L 844 821 L 844 820 L 842 818 L 842 817 L 841 816 L 841 815 L 839 813 L 839 812 L 837 810 L 837 809 L 835 807 L 835 806 L 832 803 L 832 802 L 829 799 L 829 798 L 823 792 L 823 791 L 813 781 L 812 781 L 808 777 L 807 777 L 803 773 L 802 773 L 799 770 L 798 770 L 796 768 L 795 768 L 793 766 L 792 766 L 791 765 L 790 765 L 788 763 L 787 763 L 786 762 L 785 762 L 783 760 L 782 760 L 781 759 L 780 759 L 779 758 L 778 758 L 777 757 L 776 757 L 775 756 L 773 756 L 772 755 L 771 755 L 770 754 L 769 754 L 768 753 L 766 753 L 765 752 L 763 752 L 762 751 L 761 751 L 760 750 L 757 750 L 756 749 L 754 749 L 753 748 L 750 748 L 749 747 L 746 747 L 745 746 L 740 746 L 739 745 L 734 745 L 733 744 L 723 744 L 722 743 L 624 743 L 624 744 L 623 745 L 623 747 L 622 748 L 622 750 L 621 751 L 621 760 L 620 761 L 620 765 L 619 766 L 619 770 L 618 771 L 618 778 L 617 779 L 617 797 L 618 798 L 618 799 L 619 800 L 619 809 L 620 810 L 620 812 L 621 813 L 621 815 L 622 816 L 622 839 L 623 840 L 623 843 L 624 844 L 624 845 L 625 846 L 625 848 L 626 849 L 626 850 L 628 852 L 628 853 L 629 854 L 629 855 L 632 858 L 632 859 L 635 862 L 635 863 L 639 867 L 639 868 L 641 870 L 641 871 L 642 872 L 642 873 L 643 874 L 643 875 L 644 876 L 644 877 L 645 878 L 645 881 L 646 882 L 646 884 L 647 885 L 647 888 L 648 889 L 648 891 L 649 892 L 649 893 L 650 894 L 650 895 L 652 897 L 652 898 L 653 899 L 653 900 L 655 902 L 655 903 L 656 904 L 656 905 L 657 906 L 657 908 L 658 909 L 658 910 L 659 911 L 659 912 L 660 913 L 660 914 L 663 917 L 663 918 L 664 919 L 664 920 L 665 921 L 665 922 L 666 923 L 666 924 L 667 925 L 667 927 L 668 928 L 668 929 L 669 930 L 669 931 L 670 932 L 670 933 L 671 934 L 671 936 L 672 937 L 672 938 L 673 939 L 673 940 L 674 941 L 674 943 L 675 944 L 675 945 L 676 946 L 676 948 L 677 949 L 677 951 L 678 952 L 678 954 L 679 955 L 679 956 L 680 957 L 680 959 L 681 960 L 681 962 L 682 963 L 682 968 L 680 970 L 679 970 L 678 971 L 666 971 L 665 972 L 486 972 L 485 971 L 463 971 L 462 970 L 461 970 L 459 968 L 459 964 L 460 963 L 460 961 L 461 960 L 461 958 L 462 957 L 462 955 L 463 954 L 463 952 L 464 951 L 464 948 L 465 947 L 465 945 L 466 944 L 466 943 L 467 942 L 467 940 L 468 939 L 468 937 L 469 936 L 469 934 L 470 933 L 470 931 L 471 930 L 471 929 L 472 928 L 472 927 L 473 926 L 473 924 L 474 923 L 474 922 L 475 921 L 475 920 L 476 919 L 476 918 L 478 916 L 478 915 L 482 911 L 482 910 L 483 909 L 483 908 L 484 907 L 484 906 L 485 905 L 485 904 L 487 902 L 487 901 L 488 900 L 488 899 L 489 898 L 489 897 L 491 895 L 491 894 L 492 893 L 492 892 L 493 891 L 493 889 L 494 888 L 494 886 L 495 885 L 495 882 L 496 881 L 496 879 L 497 878 L 497 876 L 498 875 L 498 873 L 499 872 L 499 871 L 500 870 L 500 869 L 502 867 L 502 866 L 503 865 L 503 864 L 504 863 L 504 861 L 505 860 L 505 859 L 506 858 L 506 855 L 507 854 L 507 851 L 508 850 L 508 848 L 509 847 L 509 845 L 510 844 L 510 842 L 511 841 L 511 839 L 512 838 L 512 836 L 513 835 L 513 833 L 514 832 L 514 830 L 515 829 L 515 826 L 516 825 L 516 820 L 517 819 L 517 817 L 518 816 L 518 814 L 519 813 L 519 811 L 520 810 L 520 803 L 519 802 L 519 799 L 518 798 L 518 795 L 517 794 L 517 786 L 518 785 L 518 780 L 519 779 L 519 769 L 518 768 L 518 761 L 517 760 L 517 755 L 516 754 L 516 747 L 515 746 L 515 743 Z  M 652 1022 L 678 1022 L 680 1024 L 680 1026 L 681 1027 L 681 1029 L 682 1030 L 682 1032 L 683 1033 L 683 1035 L 684 1036 L 684 1038 L 685 1039 L 685 1041 L 686 1042 L 686 1043 L 687 1044 L 687 1046 L 688 1047 L 688 1049 L 689 1050 L 689 1052 L 690 1053 L 690 1055 L 691 1056 L 691 1058 L 692 1059 L 692 1060 L 693 1061 L 693 1063 L 694 1064 L 694 1066 L 695 1067 L 695 1069 L 696 1070 L 696 1072 L 697 1073 L 697 1074 L 698 1075 L 698 1077 L 699 1078 L 699 1080 L 700 1081 L 700 1083 L 701 1084 L 701 1086 L 702 1087 L 702 1088 L 703 1089 L 703 1091 L 704 1092 L 704 1094 L 705 1095 L 705 1097 L 706 1098 L 706 1100 L 707 1101 L 707 1103 L 708 1104 L 708 1106 L 709 1107 L 709 1109 L 710 1110 L 710 1111 L 709 1112 L 684 1112 L 683 1111 L 683 1110 L 682 1109 L 682 1106 L 681 1105 L 681 1103 L 680 1102 L 680 1100 L 648 1100 L 648 1103 L 647 1104 L 647 1107 L 646 1108 L 646 1110 L 644 1112 L 620 1112 L 619 1111 L 619 1110 L 620 1109 L 620 1108 L 621 1107 L 621 1105 L 622 1104 L 622 1102 L 623 1101 L 623 1099 L 624 1098 L 624 1096 L 625 1095 L 625 1093 L 626 1092 L 626 1091 L 627 1090 L 627 1088 L 628 1087 L 628 1085 L 629 1084 L 629 1082 L 630 1081 L 630 1080 L 631 1079 L 631 1077 L 632 1076 L 632 1074 L 633 1073 L 633 1071 L 634 1070 L 634 1069 L 635 1068 L 635 1066 L 636 1065 L 636 1063 L 637 1062 L 637 1060 L 638 1059 L 638 1058 L 639 1057 L 639 1055 L 640 1054 L 640 1052 L 641 1051 L 641 1049 L 642 1048 L 642 1046 L 643 1045 L 643 1044 L 644 1043 L 644 1041 L 645 1040 L 645 1038 L 646 1037 L 646 1035 L 647 1034 L 647 1032 L 648 1031 L 648 1030 L 649 1029 L 649 1027 L 650 1026 L 650 1024 Z  M 567 1023 L 568 1022 L 632 1022 L 633 1023 L 633 1025 L 632 1026 L 632 1028 L 631 1029 L 631 1031 L 630 1032 L 630 1034 L 629 1035 L 629 1037 L 628 1038 L 628 1040 L 626 1042 L 595 1042 L 594 1043 L 594 1059 L 595 1060 L 619 1060 L 620 1061 L 620 1063 L 619 1064 L 619 1066 L 618 1067 L 618 1069 L 617 1070 L 617 1071 L 616 1072 L 616 1074 L 615 1075 L 615 1077 L 614 1078 L 614 1079 L 613 1080 L 594 1080 L 594 1111 L 593 1112 L 568 1112 L 567 1111 Z  M 523 1023 L 524 1022 L 549 1022 L 550 1023 L 550 1111 L 549 1112 L 524 1112 L 523 1111 Z  M 449 1023 L 450 1022 L 514 1022 L 515 1023 L 514 1024 L 514 1026 L 513 1027 L 513 1029 L 512 1030 L 512 1032 L 511 1033 L 511 1035 L 510 1036 L 510 1038 L 509 1039 L 509 1041 L 508 1042 L 477 1042 L 476 1043 L 476 1059 L 477 1060 L 501 1060 L 502 1061 L 502 1063 L 501 1064 L 501 1066 L 500 1067 L 500 1069 L 499 1070 L 499 1072 L 498 1073 L 498 1074 L 497 1075 L 497 1077 L 496 1078 L 496 1079 L 495 1080 L 476 1080 L 476 1111 L 475 1112 L 450 1112 L 449 1111 Z  M 413 267 L 412 268 L 406 268 L 405 269 L 400 269 L 399 270 L 396 270 L 395 271 L 392 271 L 391 272 L 389 272 L 388 273 L 386 273 L 385 274 L 383 274 L 382 275 L 380 275 L 379 276 L 377 276 L 376 277 L 375 277 L 374 278 L 372 278 L 371 279 L 370 279 L 369 280 L 368 280 L 367 281 L 366 281 L 365 282 L 363 282 L 361 284 L 360 284 L 359 285 L 358 285 L 357 286 L 356 286 L 355 287 L 354 287 L 352 289 L 351 289 L 350 290 L 349 290 L 347 292 L 346 292 L 343 295 L 342 295 L 339 298 L 338 298 L 335 301 L 334 301 L 315 320 L 315 321 L 311 325 L 311 326 L 308 329 L 308 330 L 306 332 L 306 333 L 304 335 L 304 336 L 302 338 L 302 339 L 301 340 L 301 341 L 300 342 L 300 343 L 298 345 L 298 346 L 297 347 L 297 348 L 296 349 L 296 350 L 295 351 L 295 352 L 294 353 L 294 355 L 293 356 L 293 357 L 292 358 L 292 359 L 291 360 L 291 361 L 290 362 L 290 364 L 289 365 L 289 367 L 288 368 L 288 370 L 287 371 L 287 373 L 286 374 L 286 376 L 285 377 L 285 379 L 284 380 L 284 383 L 283 384 L 283 388 L 282 389 L 282 394 L 281 395 L 281 402 L 280 403 L 280 416 L 363 416 L 364 417 L 371 417 L 372 416 L 376 416 L 377 417 L 402 417 L 403 418 L 402 419 L 397 419 L 396 420 L 392 420 L 391 421 L 387 421 L 386 422 L 384 422 L 383 423 L 381 423 L 380 424 L 378 424 L 377 425 L 375 425 L 374 426 L 372 426 L 371 427 L 370 427 L 369 428 L 368 428 L 367 429 L 365 429 L 364 430 L 363 430 L 362 431 L 361 431 L 360 432 L 359 432 L 358 433 L 357 433 L 356 434 L 355 434 L 354 435 L 353 435 L 351 437 L 350 437 L 349 438 L 348 438 L 346 440 L 345 440 L 343 442 L 342 442 L 340 444 L 339 444 L 335 448 L 334 448 L 330 452 L 329 452 L 315 466 L 315 467 L 310 472 L 310 473 L 307 476 L 307 477 L 305 479 L 305 480 L 303 482 L 303 483 L 301 485 L 301 486 L 299 488 L 299 489 L 298 490 L 298 491 L 297 492 L 297 493 L 296 494 L 296 495 L 295 496 L 295 497 L 294 498 L 294 499 L 293 500 L 293 501 L 292 502 L 292 503 L 291 504 L 291 505 L 290 506 L 290 508 L 289 509 L 289 510 L 288 511 L 288 513 L 287 514 L 287 516 L 286 517 L 286 519 L 285 520 L 285 522 L 284 523 L 284 526 L 283 527 L 283 529 L 282 530 L 282 534 L 281 535 L 281 539 L 280 540 L 280 547 L 279 548 L 279 570 L 278 571 L 278 716 L 279 717 L 512 717 L 512 716 L 513 715 L 513 712 L 514 711 L 514 704 L 513 703 L 513 701 L 512 700 L 512 699 L 511 698 L 511 697 L 510 696 L 510 695 L 509 694 L 509 693 L 507 691 L 507 690 L 506 689 L 506 688 L 504 686 L 504 685 L 503 684 L 503 683 L 502 682 L 502 681 L 501 680 L 501 679 L 499 677 L 499 675 L 498 674 L 498 673 L 497 672 L 497 671 L 496 670 L 496 667 L 495 666 L 495 663 L 494 662 L 494 659 L 493 658 L 493 656 L 492 655 L 492 652 L 491 651 L 491 649 L 490 648 L 490 645 L 489 644 L 489 641 L 488 640 L 488 636 L 487 635 L 487 631 L 486 630 L 486 626 L 485 625 L 485 621 L 484 620 L 484 616 L 483 615 L 483 610 L 482 609 L 482 602 L 481 601 L 481 594 L 480 593 L 480 587 L 479 586 L 479 581 L 478 580 L 478 575 L 477 574 L 477 572 L 476 571 L 476 569 L 475 568 L 475 566 L 474 565 L 474 563 L 473 562 L 473 561 L 472 560 L 472 558 L 471 557 L 471 555 L 470 554 L 470 553 L 469 552 L 469 550 L 468 549 L 468 547 L 467 546 L 467 545 L 466 544 L 466 542 L 465 541 L 465 540 L 464 539 L 464 538 L 463 537 L 463 536 L 462 535 L 462 533 L 461 532 L 461 530 L 460 529 L 460 527 L 459 526 L 459 523 L 458 522 L 458 515 L 457 514 L 457 513 L 458 512 L 458 499 L 459 498 L 459 495 L 460 494 L 460 493 L 462 491 L 463 491 L 465 489 L 465 464 L 466 463 L 466 459 L 467 458 L 467 454 L 468 453 L 468 450 L 469 449 L 469 446 L 470 445 L 470 443 L 471 442 L 471 440 L 472 439 L 472 438 L 473 437 L 473 435 L 474 434 L 474 433 L 475 432 L 475 431 L 476 430 L 476 429 L 477 428 L 477 427 L 478 426 L 478 425 L 479 424 L 479 423 L 480 422 L 480 421 L 481 420 L 481 419 L 483 417 L 483 416 L 485 414 L 485 413 L 488 410 L 488 409 L 492 405 L 492 404 L 505 391 L 506 391 L 510 387 L 511 387 L 513 385 L 514 385 L 516 383 L 517 383 L 518 382 L 519 382 L 521 380 L 522 380 L 523 379 L 524 379 L 525 378 L 526 378 L 527 377 L 528 377 L 529 376 L 530 376 L 531 375 L 533 375 L 534 374 L 535 374 L 536 373 L 538 373 L 539 372 L 541 372 L 542 371 L 545 371 L 546 370 L 549 370 L 550 369 L 554 369 L 555 368 L 560 368 L 561 367 L 584 367 L 585 368 L 590 368 L 591 369 L 595 369 L 596 370 L 599 370 L 600 371 L 603 371 L 604 372 L 606 372 L 607 373 L 609 373 L 610 374 L 611 374 L 612 375 L 614 375 L 615 376 L 616 376 L 617 377 L 618 377 L 619 378 L 620 378 L 621 379 L 622 379 L 623 380 L 624 380 L 626 382 L 627 382 L 628 383 L 629 383 L 631 385 L 632 385 L 635 388 L 636 388 L 641 393 L 642 393 L 650 401 L 650 402 L 655 407 L 655 408 L 658 411 L 658 412 L 660 414 L 660 415 L 663 418 L 663 419 L 664 420 L 664 421 L 665 422 L 665 423 L 666 424 L 666 425 L 667 426 L 667 427 L 668 428 L 668 429 L 669 430 L 669 431 L 670 432 L 670 433 L 671 434 L 671 435 L 672 436 L 672 437 L 673 438 L 673 440 L 674 441 L 674 443 L 675 444 L 675 446 L 676 447 L 676 449 L 677 450 L 677 453 L 678 454 L 678 458 L 679 459 L 679 463 L 680 464 L 682 464 L 683 463 L 683 462 L 687 458 L 688 458 L 689 459 L 689 462 L 690 463 L 690 466 L 691 467 L 691 471 L 692 472 L 692 474 L 693 475 L 693 479 L 694 480 L 694 487 L 693 488 L 693 492 L 692 493 L 692 495 L 691 496 L 691 500 L 690 501 L 690 505 L 689 506 L 689 510 L 688 511 L 688 515 L 687 516 L 687 519 L 686 520 L 686 523 L 685 524 L 685 526 L 684 527 L 684 529 L 683 530 L 683 531 L 682 532 L 682 534 L 681 535 L 681 536 L 680 537 L 680 539 L 679 540 L 679 552 L 678 553 L 678 557 L 677 558 L 677 560 L 676 561 L 676 564 L 675 565 L 675 567 L 674 568 L 674 569 L 673 570 L 673 572 L 672 573 L 672 575 L 671 576 L 671 577 L 670 578 L 670 580 L 669 581 L 669 582 L 668 583 L 668 585 L 667 586 L 667 588 L 666 589 L 666 591 L 665 592 L 665 593 L 664 594 L 664 596 L 663 597 L 663 599 L 662 600 L 662 602 L 661 603 L 661 605 L 660 606 L 660 608 L 659 609 L 659 612 L 658 613 L 658 616 L 657 617 L 657 621 L 656 622 L 656 625 L 655 626 L 655 630 L 654 631 L 654 635 L 653 636 L 653 640 L 652 641 L 652 645 L 651 646 L 651 650 L 650 651 L 650 655 L 649 656 L 649 659 L 648 660 L 648 663 L 647 664 L 647 667 L 646 668 L 646 671 L 645 672 L 645 674 L 644 675 L 644 678 L 643 679 L 643 681 L 642 682 L 642 684 L 641 685 L 641 687 L 640 688 L 640 690 L 639 691 L 639 694 L 638 695 L 638 696 L 637 697 L 637 699 L 636 700 L 636 702 L 635 703 L 635 705 L 634 706 L 634 708 L 633 709 L 633 711 L 632 712 L 632 715 L 631 716 L 631 718 L 863 718 L 864 717 L 864 567 L 740 567 L 739 566 L 740 565 L 742 565 L 743 564 L 748 564 L 749 563 L 752 563 L 753 562 L 755 562 L 756 561 L 759 561 L 760 560 L 762 560 L 763 559 L 765 559 L 766 558 L 767 558 L 768 557 L 770 557 L 771 556 L 772 556 L 773 555 L 775 555 L 776 554 L 777 554 L 778 553 L 779 553 L 780 552 L 781 552 L 782 551 L 783 551 L 785 549 L 786 549 L 787 548 L 788 548 L 789 547 L 790 547 L 792 545 L 793 545 L 794 544 L 795 544 L 797 542 L 798 542 L 801 539 L 802 539 L 805 536 L 806 536 L 810 532 L 811 532 L 829 514 L 829 513 L 834 508 L 834 507 L 836 505 L 836 504 L 838 502 L 838 501 L 840 499 L 840 498 L 842 496 L 842 495 L 843 494 L 843 493 L 845 491 L 845 490 L 846 489 L 846 488 L 847 487 L 847 486 L 848 485 L 848 484 L 849 483 L 849 482 L 850 481 L 850 480 L 851 479 L 851 478 L 852 477 L 852 476 L 853 475 L 853 473 L 854 472 L 854 471 L 855 470 L 855 468 L 856 467 L 856 465 L 857 464 L 857 462 L 858 461 L 858 459 L 859 458 L 859 455 L 860 454 L 860 452 L 861 451 L 861 447 L 862 446 L 862 442 L 863 441 L 863 435 L 864 434 L 864 423 L 865 422 L 865 408 L 864 407 L 864 397 L 863 396 L 863 389 L 862 388 L 862 384 L 861 383 L 861 380 L 860 379 L 860 376 L 859 375 L 859 373 L 858 372 L 858 369 L 857 368 L 857 366 L 856 365 L 856 363 L 855 362 L 855 361 L 854 360 L 854 358 L 853 357 L 853 356 L 852 355 L 852 354 L 851 353 L 851 352 L 850 351 L 850 350 L 849 349 L 849 348 L 848 347 L 848 346 L 847 345 L 847 344 L 846 343 L 846 342 L 845 341 L 845 340 L 844 339 L 844 338 L 842 336 L 842 335 L 841 334 L 841 333 L 839 331 L 839 330 L 836 327 L 836 326 L 833 323 L 833 322 L 829 318 L 829 317 L 814 302 L 813 302 L 809 298 L 808 298 L 805 295 L 804 295 L 802 293 L 801 293 L 798 290 L 797 290 L 796 289 L 795 289 L 793 287 L 792 287 L 791 286 L 790 286 L 789 285 L 788 285 L 786 283 L 785 283 L 784 282 L 783 282 L 782 281 L 781 281 L 780 280 L 779 280 L 778 279 L 776 279 L 775 278 L 774 278 L 773 277 L 772 277 L 771 276 L 769 276 L 768 275 L 767 275 L 766 274 L 764 274 L 763 273 L 760 273 L 759 272 L 757 272 L 756 271 L 753 271 L 752 270 L 748 270 L 747 269 L 743 269 L 742 268 L 735 268 L 734 267 Z  M 975 95 L 974 96 L 974 98 L 973 99 L 973 100 L 972 101 L 972 103 L 971 104 L 971 105 L 970 106 L 970 108 L 969 109 L 969 110 L 968 111 L 968 112 L 967 113 L 967 115 L 966 116 L 966 117 L 965 118 L 965 120 L 964 121 L 964 123 L 975 123 Z  M 739 42 L 738 43 L 731 43 L 730 44 L 727 44 L 726 45 L 723 45 L 722 46 L 720 46 L 719 47 L 718 47 L 717 48 L 715 48 L 714 49 L 713 49 L 712 50 L 711 50 L 710 51 L 709 51 L 707 53 L 706 53 L 704 55 L 703 55 L 701 57 L 700 57 L 689 68 L 689 69 L 686 72 L 686 73 L 684 75 L 684 76 L 683 77 L 683 78 L 681 80 L 681 81 L 680 82 L 680 84 L 679 85 L 679 86 L 678 87 L 678 88 L 677 89 L 677 91 L 676 92 L 676 94 L 675 95 L 675 97 L 674 98 L 674 103 L 673 104 L 673 125 L 674 126 L 674 130 L 675 131 L 675 134 L 676 135 L 676 138 L 677 139 L 677 140 L 678 141 L 678 143 L 679 144 L 679 145 L 680 146 L 680 147 L 681 148 L 681 149 L 682 150 L 682 151 L 684 153 L 684 154 L 685 155 L 685 156 L 688 159 L 688 160 L 700 172 L 701 172 L 704 175 L 705 175 L 707 177 L 708 177 L 709 178 L 710 178 L 711 179 L 712 179 L 713 180 L 714 180 L 715 181 L 716 181 L 717 182 L 718 182 L 719 183 L 721 183 L 722 184 L 725 184 L 726 185 L 729 185 L 730 186 L 735 186 L 736 187 L 1032 187 L 1033 186 L 1038 186 L 1039 185 L 1042 185 L 1043 184 L 1046 184 L 1047 183 L 1049 183 L 1050 182 L 1051 182 L 1052 181 L 1053 181 L 1054 180 L 1055 180 L 1056 179 L 1057 179 L 1058 178 L 1059 178 L 1060 177 L 1061 177 L 1063 175 L 1064 175 L 1066 173 L 1067 173 L 1080 160 L 1080 159 L 1083 156 L 1083 155 L 1085 153 L 1085 152 L 1086 151 L 1086 150 L 1087 149 L 1087 148 L 1088 147 L 1088 146 L 1089 145 L 1089 144 L 1090 143 L 1090 141 L 1091 140 L 1091 138 L 1092 137 L 1092 135 L 1093 134 L 1093 131 L 1094 130 L 1094 126 L 1095 125 L 1095 105 L 1094 104 L 1094 99 L 1093 98 L 1093 95 L 1092 94 L 1092 92 L 1091 91 L 1091 89 L 1090 88 L 1090 87 L 1089 86 L 1089 84 L 1088 83 L 1088 82 L 1087 81 L 1087 80 L 1086 79 L 1086 78 L 1084 76 L 1084 75 L 1082 73 L 1082 72 L 1079 69 L 1079 68 L 1069 58 L 1068 58 L 1065 55 L 1064 55 L 1062 53 L 1061 53 L 1059 51 L 1058 51 L 1057 50 L 1056 50 L 1055 49 L 1054 49 L 1053 48 L 1052 48 L 1051 47 L 1049 47 L 1048 46 L 1046 46 L 1045 45 L 1042 45 L 1041 44 L 1038 44 L 1037 43 L 1030 43 L 1029 42 Z  M 972 74 L 991 74 L 992 75 L 992 122 L 993 123 L 997 123 L 998 122 L 999 123 L 999 134 L 1000 135 L 998 137 L 992 137 L 992 152 L 991 153 L 976 153 L 975 152 L 975 137 L 950 137 L 949 136 L 949 122 L 950 121 L 950 120 L 951 119 L 951 117 L 952 116 L 952 115 L 953 114 L 953 113 L 954 112 L 954 111 L 955 110 L 955 109 L 956 108 L 956 107 L 957 106 L 957 105 L 958 104 L 958 102 L 959 101 L 959 100 L 960 99 L 960 98 L 961 97 L 961 95 L 962 94 L 962 93 L 963 92 L 963 91 L 964 90 L 964 89 L 965 88 L 965 87 L 966 86 L 966 85 L 967 84 L 967 82 L 968 81 L 968 80 L 969 79 L 969 78 L 970 77 L 970 76 Z  M 871 75 L 872 74 L 888 74 L 889 75 L 889 77 L 890 78 L 890 81 L 891 82 L 891 85 L 892 86 L 892 88 L 893 89 L 893 92 L 894 93 L 894 96 L 895 97 L 895 99 L 896 100 L 896 103 L 897 104 L 897 108 L 898 109 L 899 109 L 899 106 L 900 105 L 900 102 L 901 101 L 901 98 L 902 97 L 902 95 L 903 94 L 903 91 L 904 90 L 904 88 L 905 87 L 905 84 L 906 83 L 906 80 L 907 79 L 907 77 L 908 76 L 908 75 L 909 74 L 924 74 L 925 75 L 925 77 L 924 78 L 924 79 L 923 80 L 923 82 L 922 83 L 922 85 L 921 86 L 921 88 L 920 89 L 920 91 L 919 92 L 919 94 L 918 95 L 918 96 L 917 97 L 917 99 L 916 100 L 916 102 L 915 103 L 915 105 L 914 106 L 914 108 L 913 109 L 913 110 L 912 111 L 912 113 L 911 114 L 911 116 L 910 117 L 910 119 L 909 120 L 909 122 L 908 123 L 908 125 L 907 126 L 907 128 L 906 129 L 906 152 L 905 153 L 890 153 L 889 152 L 889 127 L 888 126 L 888 124 L 887 123 L 887 121 L 886 120 L 886 118 L 885 117 L 885 115 L 884 114 L 884 112 L 883 111 L 883 110 L 882 109 L 882 107 L 881 106 L 881 104 L 880 103 L 880 101 L 879 100 L 879 98 L 878 97 L 878 95 L 877 94 L 877 92 L 876 91 L 876 89 L 875 88 L 875 87 L 874 86 L 874 84 L 873 83 L 873 81 L 872 80 L 872 78 L 871 77 Z  M 771 75 L 772 74 L 809 74 L 810 75 L 810 88 L 809 89 L 788 89 L 788 106 L 806 106 L 807 107 L 807 119 L 806 120 L 789 120 L 788 121 L 788 139 L 809 139 L 810 140 L 810 152 L 809 153 L 772 153 L 771 152 Z  M 837 74 L 838 73 L 848 73 L 849 74 L 853 74 L 854 75 L 855 75 L 856 76 L 857 76 L 858 77 L 859 77 L 864 82 L 864 83 L 865 84 L 865 85 L 866 86 L 866 88 L 867 89 L 867 100 L 866 101 L 852 101 L 851 100 L 851 95 L 850 94 L 850 91 L 847 88 L 846 88 L 845 87 L 841 87 L 840 88 L 838 88 L 836 90 L 836 91 L 835 92 L 835 136 L 839 140 L 847 140 L 850 137 L 850 136 L 851 135 L 851 124 L 844 124 L 843 123 L 843 112 L 844 111 L 867 111 L 868 112 L 868 133 L 867 134 L 867 138 L 866 139 L 866 141 L 865 142 L 865 143 L 864 144 L 864 145 L 858 151 L 857 151 L 856 152 L 855 152 L 854 153 L 851 153 L 850 154 L 835 154 L 834 153 L 831 153 L 830 152 L 829 152 L 828 151 L 827 151 L 821 145 L 821 144 L 820 143 L 820 142 L 819 141 L 819 139 L 818 138 L 818 132 L 817 131 L 817 96 L 818 95 L 818 90 L 819 89 L 819 87 L 820 86 L 820 85 L 821 84 L 821 83 L 827 77 L 828 77 L 829 76 L 830 76 L 831 75 L 833 75 L 834 74 Z "/>
</g>
</svg>